<mxfile host="app.diagrams.net" modified="2023-09-05T19:31:46.834Z" agent="Mozilla/5.0 (Windows NT 10.0; Win64; x64) AppleWebKit/537.36 (KHTML, like Gecko) Chrome/116.0.0.0 Safari/537.36" etag="Zza1rJ5OX5VTzPPdZU9C" version="21.7.2" type="device">
  <diagram id="kgpKYQtTHZ0yAKxKKP6v" name="Page-1">
    <mxGraphModel dx="2688" dy="2114" grid="1" gridSize="10" guides="1" tooltips="1" connect="1" arrows="1" fold="1" page="1" pageScale="1" pageWidth="850" pageHeight="1100" math="0" shadow="0">
      <root>
        <mxCell id="0" />
        <mxCell id="1" parent="0" />
        <mxCell id="CKbQxflFSovsi2AU5fdl-17" style="edgeStyle=orthogonalEdgeStyle;rounded=0;orthogonalLoop=1;jettySize=auto;html=1;dashed=1;endArrow=none;endFill=0;entryX=0.5;entryY=1;entryDx=0;entryDy=0;" edge="1" parent="1">
          <mxGeometry relative="1" as="geometry">
            <mxPoint x="104.81999999999996" y="-10" as="targetPoint" />
            <mxPoint x="104.41" y="1800" as="sourcePoint" />
          </mxGeometry>
        </mxCell>
        <mxCell id="CKbQxflFSovsi2AU5fdl-16" style="edgeStyle=orthogonalEdgeStyle;rounded=0;orthogonalLoop=1;jettySize=auto;html=1;dashed=1;endArrow=none;endFill=0;entryX=0.5;entryY=1;entryDx=0;entryDy=0;" edge="1" parent="1">
          <mxGeometry relative="1" as="geometry">
            <mxPoint x="-125.59000000000003" y="-10" as="targetPoint" />
            <mxPoint x="-126" y="1800" as="sourcePoint" />
          </mxGeometry>
        </mxCell>
        <mxCell id="naLQoQvjF8YPUEuu64ZZ-2" value="" style="html=1;points=[];perimeter=orthogonalPerimeter;" parent="1" vertex="1">
          <mxGeometry x="-130" y="240" width="10" height="80" as="geometry" />
        </mxCell>
        <mxCell id="naLQoQvjF8YPUEuu64ZZ-12" value="&lt;b&gt;ECA desktop&lt;/b&gt;" style="html=1;strokeWidth=2;" parent="1" vertex="1">
          <mxGeometry x="-180" y="-60" width="110" height="50" as="geometry" />
        </mxCell>
        <mxCell id="naLQoQvjF8YPUEuu64ZZ-18" style="edgeStyle=orthogonalEdgeStyle;rounded=0;orthogonalLoop=1;jettySize=auto;html=1;entryX=0.5;entryY=1;entryDx=0;entryDy=0;dashed=1;endArrow=none;endFill=0;" parent="1" source="naLQoQvjF8YPUEuu64ZZ-13" target="naLQoQvjF8YPUEuu64ZZ-17" edge="1">
          <mxGeometry relative="1" as="geometry" />
        </mxCell>
        <mxCell id="naLQoQvjF8YPUEuu64ZZ-13" value="" style="html=1;points=[];perimeter=orthogonalPerimeter;" parent="1" vertex="1">
          <mxGeometry x="320" y="250" width="10" height="80" as="geometry" />
        </mxCell>
        <mxCell id="naLQoQvjF8YPUEuu64ZZ-16" value="&lt;font style=&quot;font-size: 11px&quot;&gt;Отправка запроса на &lt;br&gt;построение эксперимента в очередь&lt;/font&gt;" style="html=1;verticalAlign=bottom;endArrow=block;exitX=1;exitY=0.5;exitDx=0;exitDy=0;exitPerimeter=0;" parent="1" edge="1" source="naLQoQvjF8YPUEuu64ZZ-2">
          <mxGeometry x="0.0038" y="11" width="80" relative="1" as="geometry">
            <mxPoint x="80" y="280" as="sourcePoint" />
            <mxPoint x="320" y="279" as="targetPoint" />
            <mxPoint as="offset" />
          </mxGeometry>
        </mxCell>
        <mxCell id="naLQoQvjF8YPUEuu64ZZ-17" value="&lt;b&gt;Rabbit MQ&lt;/b&gt;" style="html=1;" parent="1" vertex="1">
          <mxGeometry x="270" y="-60" width="110" height="50" as="geometry" />
        </mxCell>
        <mxCell id="naLQoQvjF8YPUEuu64ZZ-22" value="&lt;b&gt;Eca server&lt;/b&gt;" style="html=1;strokeWidth=2;" parent="1" vertex="1">
          <mxGeometry x="510" y="-60" width="110" height="50" as="geometry" />
        </mxCell>
        <mxCell id="naLQoQvjF8YPUEuu64ZZ-24" value="&lt;b&gt;Eca ers&lt;/b&gt;" style="html=1;strokeWidth=2;" parent="1" vertex="1">
          <mxGeometry x="1100" y="-60" width="110" height="50" as="geometry" />
        </mxCell>
        <mxCell id="naLQoQvjF8YPUEuu64ZZ-40" style="edgeStyle=orthogonalEdgeStyle;rounded=0;orthogonalLoop=1;jettySize=auto;html=1;entryX=0.5;entryY=1;entryDx=0;entryDy=0;dashed=1;endArrow=none;endFill=0;strokeColor=#000000;" parent="1" source="naLQoQvjF8YPUEuu64ZZ-25" target="naLQoQvjF8YPUEuu64ZZ-22" edge="1">
          <mxGeometry relative="1" as="geometry" />
        </mxCell>
        <mxCell id="naLQoQvjF8YPUEuu64ZZ-25" value="" style="html=1;points=[];perimeter=orthogonalPerimeter;" parent="1" vertex="1">
          <mxGeometry x="560" y="410" width="10" height="230" as="geometry" />
        </mxCell>
        <mxCell id="naLQoQvjF8YPUEuu64ZZ-31" value="" style="html=1;points=[];perimeter=orthogonalPerimeter;" parent="1" vertex="1">
          <mxGeometry x="320" y="370" width="10" height="80" as="geometry" />
        </mxCell>
        <mxCell id="naLQoQvjF8YPUEuu64ZZ-32" style="edgeStyle=orthogonalEdgeStyle;rounded=0;orthogonalLoop=1;jettySize=auto;html=1;dashed=1;endArrow=none;endFill=0;" parent="1" source="naLQoQvjF8YPUEuu64ZZ-13" target="naLQoQvjF8YPUEuu64ZZ-31" edge="1">
          <mxGeometry relative="1" as="geometry">
            <mxPoint x="325" y="770" as="targetPoint" />
            <mxPoint x="325" y="330" as="sourcePoint" />
          </mxGeometry>
        </mxCell>
        <mxCell id="naLQoQvjF8YPUEuu64ZZ-34" value="&lt;font style=&quot;font-size: 11px&quot;&gt;Получение сообщения из очереди&lt;/font&gt;" style="html=1;verticalAlign=bottom;endArrow=block;strokeColor=#000000;" parent="1" edge="1">
          <mxGeometry x="-0.0434" y="9" width="80" relative="1" as="geometry">
            <mxPoint x="330" y="419" as="sourcePoint" />
            <mxPoint x="560" y="419" as="targetPoint" />
            <mxPoint as="offset" />
          </mxGeometry>
        </mxCell>
        <mxCell id="naLQoQvjF8YPUEuu64ZZ-35" value="" style="html=1;points=[];perimeter=orthogonalPerimeter;" parent="1" vertex="1">
          <mxGeometry x="570" y="450" width="10" height="40" as="geometry" />
        </mxCell>
        <mxCell id="naLQoQvjF8YPUEuu64ZZ-36" value="&lt;div style=&quot;text-align: center&quot;&gt;Создание заявки&lt;/div&gt;&lt;div style=&quot;text-align: center&quot;&gt;на эксперимент&lt;/div&gt;" style="edgeStyle=orthogonalEdgeStyle;html=1;align=left;spacingLeft=2;endArrow=block;rounded=0;strokeColor=#000000;" parent="1" edge="1">
          <mxGeometry x="-0.0989" y="10" relative="1" as="geometry">
            <mxPoint x="569" y="440" as="sourcePoint" />
            <Array as="points">
              <mxPoint x="569" y="440" />
              <mxPoint x="600" y="440" />
              <mxPoint x="600" y="470" />
            </Array>
            <mxPoint x="580" y="470" as="targetPoint" />
            <mxPoint as="offset" />
          </mxGeometry>
        </mxCell>
        <mxCell id="naLQoQvjF8YPUEuu64ZZ-55" style="edgeStyle=orthogonalEdgeStyle;rounded=0;orthogonalLoop=1;jettySize=auto;html=1;dashed=1;endArrow=none;endFill=0;strokeColor=#000000;startArrow=none;" parent="1" source="_helN47nyWwRMhfuMbbw-1" edge="1">
          <mxGeometry relative="1" as="geometry">
            <mxPoint x="325" y="1750" as="targetPoint" />
          </mxGeometry>
        </mxCell>
        <mxCell id="naLQoQvjF8YPUEuu64ZZ-50" value="" style="html=1;points=[];perimeter=orthogonalPerimeter;" parent="1" vertex="1">
          <mxGeometry x="320" y="600" width="10" height="50" as="geometry" />
        </mxCell>
        <mxCell id="naLQoQvjF8YPUEuu64ZZ-51" style="edgeStyle=orthogonalEdgeStyle;rounded=0;orthogonalLoop=1;jettySize=auto;html=1;dashed=1;endArrow=none;endFill=0;" parent="1" source="naLQoQvjF8YPUEuu64ZZ-31" target="naLQoQvjF8YPUEuu64ZZ-50" edge="1">
          <mxGeometry relative="1" as="geometry">
            <mxPoint x="325" y="760" as="targetPoint" />
            <mxPoint x="325" y="450" as="sourcePoint" />
          </mxGeometry>
        </mxCell>
        <mxCell id="naLQoQvjF8YPUEuu64ZZ-52" value="&lt;font style=&quot;font-size: 11px&quot;&gt;Отправка ответного&lt;br&gt;сообщения в очередь об успешном&lt;br&gt;создании заявки&lt;br&gt;&lt;/font&gt;" style="html=1;verticalAlign=bottom;endArrow=open;dashed=1;endSize=8;strokeColor=#000000;" parent="1" target="naLQoQvjF8YPUEuu64ZZ-50" edge="1">
          <mxGeometry x="0.0435" y="-9" relative="1" as="geometry">
            <mxPoint x="557" y="625" as="sourcePoint" />
            <mxPoint x="480" y="739.5" as="targetPoint" />
            <mxPoint as="offset" />
          </mxGeometry>
        </mxCell>
        <mxCell id="naLQoQvjF8YPUEuu64ZZ-53" value="" style="html=1;points=[];perimeter=orthogonalPerimeter;" parent="1" vertex="1">
          <mxGeometry x="-130" y="740" width="10" height="40" as="geometry" />
        </mxCell>
        <mxCell id="naLQoQvjF8YPUEuu64ZZ-58" value="" style="html=1;points=[];perimeter=orthogonalPerimeter;" parent="1" vertex="1">
          <mxGeometry x="320" y="690" width="10" height="80" as="geometry" />
        </mxCell>
        <mxCell id="naLQoQvjF8YPUEuu64ZZ-59" style="edgeStyle=orthogonalEdgeStyle;rounded=0;orthogonalLoop=1;jettySize=auto;html=1;dashed=1;endArrow=none;endFill=0;strokeColor=#000000;" parent="1" source="naLQoQvjF8YPUEuu64ZZ-50" target="naLQoQvjF8YPUEuu64ZZ-58" edge="1">
          <mxGeometry relative="1" as="geometry">
            <mxPoint x="325" y="1000" as="targetPoint" />
            <mxPoint x="325" y="780" as="sourcePoint" />
          </mxGeometry>
        </mxCell>
        <mxCell id="naLQoQvjF8YPUEuu64ZZ-60" value="&lt;font style=&quot;font-size: 11px&quot;&gt;Получение ответного&lt;br&gt;сообщения из очереди&lt;/font&gt;" style="html=1;verticalAlign=bottom;endArrow=open;dashed=1;endSize=8;strokeColor=#000000;entryX=0.9;entryY=0.25;entryDx=0;entryDy=0;entryPerimeter=0;exitX=-0.133;exitY=0.771;exitDx=0;exitDy=0;exitPerimeter=0;" parent="1" source="naLQoQvjF8YPUEuu64ZZ-58" target="naLQoQvjF8YPUEuu64ZZ-53" edge="1">
          <mxGeometry x="-0.0041" relative="1" as="geometry">
            <mxPoint x="310" y="750" as="sourcePoint" />
            <mxPoint x="240" y="869.5" as="targetPoint" />
            <mxPoint as="offset" />
          </mxGeometry>
        </mxCell>
        <mxCell id="-Iud8Ji5S1M-7aWHgCWq-1" value="&lt;b&gt;Eca mail&lt;/b&gt;" style="html=1;strokeWidth=2;" parent="1" vertex="1">
          <mxGeometry x="820" y="-60" width="110" height="50" as="geometry" />
        </mxCell>
        <mxCell id="-Iud8Ji5S1M-7aWHgCWq-4" style="edgeStyle=orthogonalEdgeStyle;rounded=0;orthogonalLoop=1;jettySize=auto;html=1;dashed=1;endArrow=none;endFill=0;entryX=0.5;entryY=1;entryDx=0;entryDy=0;" parent="1" source="-Iud8Ji5S1M-7aWHgCWq-2" edge="1" target="-Iud8Ji5S1M-7aWHgCWq-1">
          <mxGeometry relative="1" as="geometry">
            <mxPoint x="875" y="150" as="targetPoint" />
          </mxGeometry>
        </mxCell>
        <mxCell id="-Iud8Ji5S1M-7aWHgCWq-2" value="" style="html=1;points=[];perimeter=orthogonalPerimeter;" parent="1" vertex="1">
          <mxGeometry x="870" y="510" width="10" height="80" as="geometry" />
        </mxCell>
        <mxCell id="-Iud8Ji5S1M-7aWHgCWq-5" value="Отправка email об&lt;br&gt;успешном создании заявки" style="html=1;verticalAlign=bottom;endArrow=block;entryX=0.1;entryY=0.125;entryDx=0;entryDy=0;entryPerimeter=0;" parent="1" target="-Iud8Ji5S1M-7aWHgCWq-2" edge="1">
          <mxGeometry width="80" relative="1" as="geometry">
            <mxPoint x="570" y="520" as="sourcePoint" />
            <mxPoint x="650" y="520" as="targetPoint" />
          </mxGeometry>
        </mxCell>
        <mxCell id="-Iud8Ji5S1M-7aWHgCWq-6" value="Получение ответа" style="html=1;verticalAlign=bottom;endArrow=open;dashed=1;endSize=8;" parent="1" edge="1">
          <mxGeometry relative="1" as="geometry">
            <mxPoint x="870" y="570" as="sourcePoint" />
            <mxPoint x="570" y="569" as="targetPoint" />
          </mxGeometry>
        </mxCell>
        <mxCell id="-Iud8Ji5S1M-7aWHgCWq-34" style="edgeStyle=orthogonalEdgeStyle;rounded=0;orthogonalLoop=1;jettySize=auto;html=1;dashed=1;endArrow=none;endFill=0;" parent="1" source="-Iud8Ji5S1M-7aWHgCWq-7" target="naLQoQvjF8YPUEuu64ZZ-25" edge="1">
          <mxGeometry relative="1" as="geometry" />
        </mxCell>
        <mxCell id="-Iud8Ji5S1M-7aWHgCWq-36" style="edgeStyle=orthogonalEdgeStyle;rounded=0;orthogonalLoop=1;jettySize=auto;html=1;dashed=1;endArrow=none;endFill=0;" parent="1" source="-Iud8Ji5S1M-7aWHgCWq-7" edge="1">
          <mxGeometry relative="1" as="geometry">
            <mxPoint x="565" y="1470" as="targetPoint" />
          </mxGeometry>
        </mxCell>
        <mxCell id="-Iud8Ji5S1M-7aWHgCWq-7" value="" style="html=1;points=[];perimeter=orthogonalPerimeter;" parent="1" vertex="1">
          <mxGeometry x="560" y="740" width="10" height="770" as="geometry" />
        </mxCell>
        <mxCell id="-Iud8Ji5S1M-7aWHgCWq-10" value="&lt;div style=&quot;text-align: center&quot;&gt;Поступление заявки&lt;/div&gt;&lt;div style=&quot;text-align: center&quot;&gt;в работу&lt;/div&gt;" style="edgeStyle=orthogonalEdgeStyle;html=1;align=left;spacingLeft=2;endArrow=block;rounded=0;strokeColor=#000000;" parent="1" edge="1" source="-Iud8Ji5S1M-7aWHgCWq-9">
          <mxGeometry x="-0.0989" y="10" relative="1" as="geometry">
            <mxPoint x="570" y="810" as="sourcePoint" />
            <Array as="points">
              <mxPoint x="570" y="760" />
              <mxPoint x="601" y="760" />
              <mxPoint x="601" y="810" />
              <mxPoint x="581" y="810" />
            </Array>
            <mxPoint x="581" y="810" as="targetPoint" />
            <mxPoint as="offset" />
          </mxGeometry>
        </mxCell>
        <mxCell id="-Iud8Ji5S1M-7aWHgCWq-14" style="edgeStyle=orthogonalEdgeStyle;rounded=0;orthogonalLoop=1;jettySize=auto;html=1;endArrow=none;endFill=0;dashed=1;" parent="1" source="-Iud8Ji5S1M-7aWHgCWq-11" edge="1">
          <mxGeometry relative="1" as="geometry">
            <mxPoint x="875" y="592" as="targetPoint" />
          </mxGeometry>
        </mxCell>
        <mxCell id="-Iud8Ji5S1M-7aWHgCWq-11" value="" style="html=1;points=[];perimeter=orthogonalPerimeter;" parent="1" vertex="1">
          <mxGeometry x="870" y="820" width="10" height="80" as="geometry" />
        </mxCell>
        <mxCell id="-Iud8Ji5S1M-7aWHgCWq-12" value="Отправка email о поступлении&lt;br&gt;заявки в работу" style="html=1;verticalAlign=bottom;endArrow=block;entryX=0.1;entryY=0.125;entryDx=0;entryDy=0;entryPerimeter=0;" parent="1" edge="1">
          <mxGeometry width="80" relative="1" as="geometry">
            <mxPoint x="569" y="850" as="sourcePoint" />
            <mxPoint x="870" y="850" as="targetPoint" />
          </mxGeometry>
        </mxCell>
        <mxCell id="-Iud8Ji5S1M-7aWHgCWq-13" value="Получение ответа" style="html=1;verticalAlign=bottom;endArrow=open;dashed=1;endSize=8;" parent="1" edge="1">
          <mxGeometry relative="1" as="geometry">
            <mxPoint x="870" y="880" as="sourcePoint" />
            <mxPoint x="570" y="880" as="targetPoint" />
          </mxGeometry>
        </mxCell>
        <mxCell id="-Iud8Ji5S1M-7aWHgCWq-15" value="" style="html=1;points=[];perimeter=orthogonalPerimeter;" parent="1" vertex="1">
          <mxGeometry x="570" y="980" width="10" height="40" as="geometry" />
        </mxCell>
        <mxCell id="-Iud8Ji5S1M-7aWHgCWq-16" value="&lt;div style=&quot;text-align: center&quot;&gt;Построение&lt;/div&gt;&lt;div style=&quot;text-align: center&quot;&gt;эксперимента&lt;/div&gt;" style="edgeStyle=orthogonalEdgeStyle;html=1;align=left;spacingLeft=2;endArrow=block;rounded=0;strokeColor=#000000;" parent="1" edge="1">
          <mxGeometry x="-0.0989" y="10" relative="1" as="geometry">
            <mxPoint x="570" y="970" as="sourcePoint" />
            <Array as="points">
              <mxPoint x="570" y="970" />
              <mxPoint x="601" y="970" />
              <mxPoint x="601" y="1000" />
            </Array>
            <mxPoint x="581" y="1000" as="targetPoint" />
            <mxPoint as="offset" />
          </mxGeometry>
        </mxCell>
        <mxCell id="-Iud8Ji5S1M-7aWHgCWq-23" style="edgeStyle=orthogonalEdgeStyle;rounded=0;orthogonalLoop=1;jettySize=auto;html=1;entryX=0.5;entryY=1;entryDx=0;entryDy=0;dashed=1;endArrow=none;endFill=0;" parent="1" source="-Iud8Ji5S1M-7aWHgCWq-20" target="naLQoQvjF8YPUEuu64ZZ-24" edge="1">
          <mxGeometry relative="1" as="geometry" />
        </mxCell>
        <mxCell id="-Iud8Ji5S1M-7aWHgCWq-32" style="edgeStyle=orthogonalEdgeStyle;rounded=0;orthogonalLoop=1;jettySize=auto;html=1;dashed=1;endArrow=none;endFill=0;" parent="1" source="-Iud8Ji5S1M-7aWHgCWq-20" edge="1">
          <mxGeometry relative="1" as="geometry">
            <mxPoint x="1155" y="1750" as="targetPoint" />
          </mxGeometry>
        </mxCell>
        <mxCell id="-Iud8Ji5S1M-7aWHgCWq-20" value="" style="html=1;points=[];perimeter=orthogonalPerimeter;" parent="1" vertex="1">
          <mxGeometry x="1150" y="1230" width="10" height="90" as="geometry" />
        </mxCell>
        <mxCell id="-Iud8Ji5S1M-7aWHgCWq-21" value="Запрос на сохранение&lt;br&gt;результатов эксперимента" style="html=1;verticalAlign=bottom;endArrow=block;" parent="1" edge="1">
          <mxGeometry x="-0.2414" y="10" width="80" relative="1" as="geometry">
            <mxPoint x="570" y="1240" as="sourcePoint" />
            <mxPoint x="1150" y="1240.59" as="targetPoint" />
            <mxPoint as="offset" />
          </mxGeometry>
        </mxCell>
        <mxCell id="-Iud8Ji5S1M-7aWHgCWq-22" value="Получение ответа на запрос" style="html=1;verticalAlign=bottom;endArrow=open;dashed=1;endSize=8;entryX=0.847;entryY=0.722;entryDx=0;entryDy=0;entryPerimeter=0;exitX=-0.386;exitY=0.773;exitDx=0;exitDy=0;exitPerimeter=0;" parent="1" source="-Iud8Ji5S1M-7aWHgCWq-20" target="-Iud8Ji5S1M-7aWHgCWq-7" edge="1">
          <mxGeometry x="0.2734" relative="1" as="geometry">
            <mxPoint x="1148" y="1250" as="sourcePoint" />
            <mxPoint x="850" y="1170" as="targetPoint" />
            <mxPoint as="offset" />
          </mxGeometry>
        </mxCell>
        <mxCell id="-Iud8Ji5S1M-7aWHgCWq-24" value="" style="html=1;points=[];perimeter=orthogonalPerimeter;" parent="1" vertex="1">
          <mxGeometry x="570" y="1170" width="10" height="40" as="geometry" />
        </mxCell>
        <mxCell id="-Iud8Ji5S1M-7aWHgCWq-25" value="&lt;div style=&quot;text-align: center&quot;&gt;Завершение обработки&lt;/div&gt;&lt;div style=&quot;text-align: center&quot;&gt;заявки&lt;/div&gt;" style="edgeStyle=orthogonalEdgeStyle;html=1;align=left;spacingLeft=2;endArrow=block;rounded=0;strokeColor=#000000;" parent="1" edge="1">
          <mxGeometry x="-0.0989" y="10" relative="1" as="geometry">
            <mxPoint x="570" y="1160" as="sourcePoint" />
            <Array as="points">
              <mxPoint x="570" y="1160" />
              <mxPoint x="601" y="1160" />
              <mxPoint x="601" y="1190" />
            </Array>
            <mxPoint x="581" y="1190" as="targetPoint" />
            <mxPoint as="offset" />
          </mxGeometry>
        </mxCell>
        <mxCell id="-Iud8Ji5S1M-7aWHgCWq-27" style="edgeStyle=orthogonalEdgeStyle;rounded=0;orthogonalLoop=1;jettySize=auto;html=1;entryX=0.5;entryY=1.013;entryDx=0;entryDy=0;entryPerimeter=0;dashed=1;endArrow=none;endFill=0;" parent="1" source="-Iud8Ji5S1M-7aWHgCWq-26" target="-Iud8Ji5S1M-7aWHgCWq-11" edge="1">
          <mxGeometry relative="1" as="geometry" />
        </mxCell>
        <mxCell id="-Iud8Ji5S1M-7aWHgCWq-31" style="edgeStyle=orthogonalEdgeStyle;rounded=0;orthogonalLoop=1;jettySize=auto;html=1;dashed=1;endArrow=none;endFill=0;" parent="1" source="-Iud8Ji5S1M-7aWHgCWq-26" edge="1">
          <mxGeometry relative="1" as="geometry">
            <mxPoint x="875" y="1750" as="targetPoint" />
          </mxGeometry>
        </mxCell>
        <mxCell id="-Iud8Ji5S1M-7aWHgCWq-26" value="" style="html=1;points=[];perimeter=orthogonalPerimeter;" parent="1" vertex="1">
          <mxGeometry x="870" y="1350" width="10" height="80" as="geometry" />
        </mxCell>
        <mxCell id="-Iud8Ji5S1M-7aWHgCWq-28" value="Отправка email со ссылкой&lt;br&gt;на скачивание результатов&lt;br&gt;эксперимента из S3" style="html=1;verticalAlign=bottom;endArrow=block;entryX=0.1;entryY=0.125;entryDx=0;entryDy=0;entryPerimeter=0;" parent="1" edge="1">
          <mxGeometry width="80" relative="1" as="geometry">
            <mxPoint x="570" y="1370" as="sourcePoint" />
            <mxPoint x="871" y="1370" as="targetPoint" />
          </mxGeometry>
        </mxCell>
        <mxCell id="-Iud8Ji5S1M-7aWHgCWq-29" value="Получение ответа" style="html=1;verticalAlign=bottom;endArrow=open;dashed=1;endSize=8;" parent="1" edge="1">
          <mxGeometry relative="1" as="geometry">
            <mxPoint x="870" y="1410" as="sourcePoint" />
            <mxPoint x="570" y="1410" as="targetPoint" />
          </mxGeometry>
        </mxCell>
        <mxCell id="-Iud8Ji5S1M-7aWHgCWq-37" style="edgeStyle=orthogonalEdgeStyle;rounded=0;orthogonalLoop=1;jettySize=auto;html=1;dashed=1;endArrow=none;endFill=0;" parent="1" edge="1">
          <mxGeometry relative="1" as="geometry">
            <mxPoint x="565" y="1750" as="targetPoint" />
            <mxPoint x="565" y="1510" as="sourcePoint" />
          </mxGeometry>
        </mxCell>
        <mxCell id="a9uQ1m3BEkJtRHffADMY-1" value="" style="html=1;points=[];perimeter=orthogonalPerimeter;" parent="1" vertex="1">
          <mxGeometry x="1160" y="1263.75" width="10" height="22.5" as="geometry" />
        </mxCell>
        <mxCell id="a9uQ1m3BEkJtRHffADMY-3" value="&lt;div style=&quot;text-align: center&quot;&gt;Сохранение результатов&lt;/div&gt;&lt;div style=&quot;text-align: center&quot;&gt;классификации в БД&lt;/div&gt;" style="edgeStyle=orthogonalEdgeStyle;html=1;align=left;spacingLeft=2;endArrow=block;rounded=0;strokeColor=#000000;" parent="1" edge="1">
          <mxGeometry x="-0.0989" y="10" relative="1" as="geometry">
            <mxPoint x="1160" y="1250" as="sourcePoint" />
            <Array as="points">
              <mxPoint x="1160" y="1250" />
              <mxPoint x="1191" y="1250" />
              <mxPoint x="1191" y="1280" />
            </Array>
            <mxPoint x="1171" y="1280" as="targetPoint" />
            <mxPoint as="offset" />
          </mxGeometry>
        </mxCell>
        <mxCell id="_helN47nyWwRMhfuMbbw-2" value="&lt;font style=&quot;font-size: 11px&quot;&gt;Отправка ответного&lt;br&gt;сообщения в очередь&lt;br&gt;со ссылкой на результаты эксперимента&lt;br&gt;&lt;/font&gt;" style="html=1;verticalAlign=bottom;endArrow=open;dashed=1;endSize=8;strokeColor=#000000;" parent="1" edge="1">
          <mxGeometry x="0.0435" y="-9" relative="1" as="geometry">
            <mxPoint x="560" y="1459.29" as="sourcePoint" />
            <mxPoint x="330" y="1459" as="targetPoint" />
            <mxPoint as="offset" />
          </mxGeometry>
        </mxCell>
        <mxCell id="_helN47nyWwRMhfuMbbw-3" value="" style="html=1;points=[];perimeter=orthogonalPerimeter;" parent="1" vertex="1">
          <mxGeometry x="320" y="1560" width="10" height="80" as="geometry" />
        </mxCell>
        <mxCell id="_helN47nyWwRMhfuMbbw-4" value="" style="html=1;points=[];perimeter=orthogonalPerimeter;" parent="1" vertex="1">
          <mxGeometry x="-130" y="1590" width="10" height="140" as="geometry" />
        </mxCell>
        <mxCell id="_helN47nyWwRMhfuMbbw-5" value="&lt;font style=&quot;font-size: 11px&quot;&gt;Получение ответного&lt;br&gt;сообщения из очереди&lt;/font&gt;" style="html=1;verticalAlign=bottom;endArrow=open;dashed=1;endSize=8;strokeColor=#000000;entryX=1.141;entryY=0.311;entryDx=0;entryDy=0;entryPerimeter=0;" parent="1" edge="1" target="_helN47nyWwRMhfuMbbw-4">
          <mxGeometry x="-0.0041" relative="1" as="geometry">
            <mxPoint x="320" y="1630" as="sourcePoint" />
            <mxPoint x="80" y="1630" as="targetPoint" />
            <mxPoint as="offset" />
          </mxGeometry>
        </mxCell>
        <mxCell id="_helN47nyWwRMhfuMbbw-8" value="Загрузка модели эксперимента по ссылке из S3" style="html=1;verticalAlign=bottom;endArrow=block;entryX=0.043;entryY=0.477;entryDx=0;entryDy=0;entryPerimeter=0;exitX=1.16;exitY=0.651;exitDx=0;exitDy=0;exitPerimeter=0;" parent="1" target="NynHPrWKD_xVcNc-aVbK-11" edge="1" source="_helN47nyWwRMhfuMbbw-4">
          <mxGeometry width="80" relative="1" as="geometry">
            <mxPoint x="80" y="1680" as="sourcePoint" />
            <mxPoint x="562" y="1680" as="targetPoint" />
          </mxGeometry>
        </mxCell>
        <mxCell id="_helN47nyWwRMhfuMbbw-9" value="Получение ответа" style="html=1;verticalAlign=bottom;endArrow=open;dashed=1;endSize=8;entryX=1.4;entryY=0.834;entryDx=0;entryDy=0;entryPerimeter=0;exitX=0.043;exitY=0.87;exitDx=0;exitDy=0;exitPerimeter=0;" parent="1" source="NynHPrWKD_xVcNc-aVbK-11" target="_helN47nyWwRMhfuMbbw-4" edge="1">
          <mxGeometry relative="1" as="geometry">
            <mxPoint x="1400" y="1710" as="sourcePoint" />
            <mxPoint x="260" y="1710" as="targetPoint" />
          </mxGeometry>
        </mxCell>
        <mxCell id="NynHPrWKD_xVcNc-aVbK-1" value="&lt;b&gt;S3 storage (minio)&lt;/b&gt;" style="html=1;strokeWidth=2;" parent="1" vertex="1">
          <mxGeometry x="1360" y="-60" width="110" height="50" as="geometry" />
        </mxCell>
        <mxCell id="NynHPrWKD_xVcNc-aVbK-3" value="" style="html=1;points=[];perimeter=orthogonalPerimeter;" parent="1" vertex="1">
          <mxGeometry x="1410" y="1020" width="10" height="60" as="geometry" />
        </mxCell>
        <mxCell id="NynHPrWKD_xVcNc-aVbK-4" value="" style="endArrow=classic;html=1;rounded=0;" parent="1" edge="1">
          <mxGeometry width="50" height="50" relative="1" as="geometry">
            <mxPoint x="570" y="1040" as="sourcePoint" />
            <mxPoint x="1410" y="1040" as="targetPoint" />
          </mxGeometry>
        </mxCell>
        <mxCell id="NynHPrWKD_xVcNc-aVbK-6" value="Запрос на сохранение модели эксперимента в S3" style="edgeLabel;html=1;align=center;verticalAlign=middle;resizable=0;points=[];" parent="NynHPrWKD_xVcNc-aVbK-4" vertex="1" connectable="0">
          <mxGeometry x="0.1133" y="-1" relative="1" as="geometry">
            <mxPoint x="-27" y="-21" as="offset" />
          </mxGeometry>
        </mxCell>
        <mxCell id="NynHPrWKD_xVcNc-aVbK-7" value="Получение ответа на запрос" style="html=1;verticalAlign=bottom;endArrow=open;dashed=1;endSize=8;exitX=0.043;exitY=0.852;exitDx=0;exitDy=0;exitPerimeter=0;" parent="1" source="NynHPrWKD_xVcNc-aVbK-3" edge="1">
          <mxGeometry x="0.2734" relative="1" as="geometry">
            <mxPoint x="1150" y="1070" as="sourcePoint" />
            <mxPoint x="572" y="1070" as="targetPoint" />
            <mxPoint as="offset" />
          </mxGeometry>
        </mxCell>
        <mxCell id="NynHPrWKD_xVcNc-aVbK-8" style="edgeStyle=orthogonalEdgeStyle;rounded=0;orthogonalLoop=1;jettySize=auto;html=1;dashed=1;endArrow=none;endFill=0;exitX=0.614;exitY=-0.031;exitDx=0;exitDy=0;exitPerimeter=0;entryX=0.5;entryY=1;entryDx=0;entryDy=0;" parent="1" source="CKbQxflFSovsi2AU5fdl-6" edge="1" target="NynHPrWKD_xVcNc-aVbK-1">
          <mxGeometry relative="1" as="geometry">
            <mxPoint x="1410" y="150" as="targetPoint" />
            <mxPoint x="1410" y="510" as="sourcePoint" />
            <Array as="points" />
          </mxGeometry>
        </mxCell>
        <mxCell id="NynHPrWKD_xVcNc-aVbK-11" value="" style="html=1;points=[];perimeter=orthogonalPerimeter;" parent="1" vertex="1">
          <mxGeometry x="1410" y="1640" width="10" height="80" as="geometry" />
        </mxCell>
        <mxCell id="_helN47nyWwRMhfuMbbw-1" value="" style="html=1;points=[];perimeter=orthogonalPerimeter;" parent="1" vertex="1">
          <mxGeometry x="320" y="1420" width="10" height="80" as="geometry" />
        </mxCell>
        <mxCell id="NynHPrWKD_xVcNc-aVbK-12" value="" style="edgeStyle=orthogonalEdgeStyle;rounded=0;orthogonalLoop=1;jettySize=auto;html=1;dashed=1;endArrow=none;endFill=0;strokeColor=#000000;" parent="1" source="naLQoQvjF8YPUEuu64ZZ-58" target="_helN47nyWwRMhfuMbbw-1" edge="1">
          <mxGeometry relative="1" as="geometry">
            <mxPoint x="325" y="1750" as="targetPoint" />
            <mxPoint x="325" y="770" as="sourcePoint" />
          </mxGeometry>
        </mxCell>
        <mxCell id="NynHPrWKD_xVcNc-aVbK-13" value="" style="html=1;points=[];perimeter=orthogonalPerimeter;" parent="1" vertex="1">
          <mxGeometry x="1410" y="1100" width="10" height="50" as="geometry" />
        </mxCell>
        <mxCell id="NynHPrWKD_xVcNc-aVbK-14" value="" style="endArrow=classic;html=1;rounded=0;" parent="1" edge="1">
          <mxGeometry width="50" height="50" relative="1" as="geometry">
            <mxPoint x="570" y="1110" as="sourcePoint" />
            <mxPoint x="1410" y="1110" as="targetPoint" />
          </mxGeometry>
        </mxCell>
        <mxCell id="NynHPrWKD_xVcNc-aVbK-15" value="Запрос на формирование ссылки (presignedURL) для скачивания модели эксперимента из S3" style="edgeLabel;html=1;align=center;verticalAlign=middle;resizable=0;points=[];" parent="NynHPrWKD_xVcNc-aVbK-14" vertex="1" connectable="0">
          <mxGeometry x="0.1133" y="-1" relative="1" as="geometry">
            <mxPoint x="-27" y="-21" as="offset" />
          </mxGeometry>
        </mxCell>
        <mxCell id="NynHPrWKD_xVcNc-aVbK-16" value="Получение ответа" style="html=1;verticalAlign=bottom;endArrow=open;dashed=1;endSize=8;exitX=-0.386;exitY=0.704;exitDx=0;exitDy=0;exitPerimeter=0;entryX=1.224;entryY=0.509;entryDx=0;entryDy=0;entryPerimeter=0;" parent="1" source="NynHPrWKD_xVcNc-aVbK-13" target="-Iud8Ji5S1M-7aWHgCWq-7" edge="1">
          <mxGeometry relative="1" as="geometry">
            <mxPoint x="1290" y="1131" as="sourcePoint" />
            <mxPoint x="570" y="1128" as="targetPoint" />
          </mxGeometry>
        </mxCell>
        <mxCell id="NynHPrWKD_xVcNc-aVbK-17" style="edgeStyle=orthogonalEdgeStyle;rounded=0;orthogonalLoop=1;jettySize=auto;html=1;entryX=0.5;entryY=1;entryDx=0;entryDy=0;dashed=1;endArrow=none;endFill=0;" parent="1" edge="1">
          <mxGeometry relative="1" as="geometry">
            <mxPoint x="1414.29" y="1100" as="sourcePoint" />
            <mxPoint x="1414.29" y="1080" as="targetPoint" />
          </mxGeometry>
        </mxCell>
        <mxCell id="NynHPrWKD_xVcNc-aVbK-18" style="edgeStyle=orthogonalEdgeStyle;rounded=0;orthogonalLoop=1;jettySize=auto;html=1;entryX=0.5;entryY=1;entryDx=0;entryDy=0;dashed=1;endArrow=none;endFill=0;exitX=0.471;exitY=-0.023;exitDx=0;exitDy=0;exitPerimeter=0;" parent="1" source="NynHPrWKD_xVcNc-aVbK-11" edge="1">
          <mxGeometry relative="1" as="geometry">
            <mxPoint x="1414.29" y="1250" as="sourcePoint" />
            <mxPoint x="1414.29" y="1150" as="targetPoint" />
          </mxGeometry>
        </mxCell>
        <mxCell id="NynHPrWKD_xVcNc-aVbK-19" style="edgeStyle=orthogonalEdgeStyle;rounded=0;orthogonalLoop=1;jettySize=auto;html=1;entryX=0.5;entryY=1;entryDx=0;entryDy=0;dashed=1;endArrow=none;endFill=0;" parent="1" edge="1">
          <mxGeometry relative="1" as="geometry">
            <mxPoint x="1414.29" y="1740" as="sourcePoint" />
            <mxPoint x="1414.29" y="1720" as="targetPoint" />
          </mxGeometry>
        </mxCell>
        <mxCell id="CKbQxflFSovsi2AU5fdl-1" value="&lt;b&gt;Eca data loader&lt;/b&gt;" style="html=1;strokeWidth=2;" vertex="1" parent="1">
          <mxGeometry x="50" y="-60" width="110" height="50" as="geometry" />
        </mxCell>
        <mxCell id="CKbQxflFSovsi2AU5fdl-2" value="" style="html=1;points=[];perimeter=orthogonalPerimeter;" vertex="1" parent="1">
          <mxGeometry x="-130" y="40" width="10" height="130" as="geometry" />
        </mxCell>
        <mxCell id="CKbQxflFSovsi2AU5fdl-3" value="" style="html=1;points=[];perimeter=orthogonalPerimeter;" vertex="1" parent="1">
          <mxGeometry x="100" y="50" width="10" height="100" as="geometry" />
        </mxCell>
        <mxCell id="CKbQxflFSovsi2AU5fdl-4" value="&lt;font style=&quot;font-size: 11px&quot;&gt;Сохранение&lt;br&gt;обучающей выборки&lt;br&gt;&lt;/font&gt;" style="html=1;verticalAlign=bottom;endArrow=block;exitX=1.12;exitY=0.495;exitDx=0;exitDy=0;exitPerimeter=0;entryX=0;entryY=0.2;entryDx=0;entryDy=0;entryPerimeter=0;" edge="1" parent="1" target="CKbQxflFSovsi2AU5fdl-3">
          <mxGeometry x="0.0038" y="11" width="80" relative="1" as="geometry">
            <mxPoint x="-120" y="70" as="sourcePoint" />
            <mxPoint x="52" y="70" as="targetPoint" />
            <mxPoint as="offset" />
          </mxGeometry>
        </mxCell>
        <mxCell id="CKbQxflFSovsi2AU5fdl-5" value="&lt;font style=&quot;font-size: 11px&quot;&gt;Сохранение&lt;br&gt;обучающей выборки в S3&lt;br&gt;&lt;/font&gt;" style="html=1;verticalAlign=bottom;endArrow=block;exitX=1.12;exitY=0.495;exitDx=0;exitDy=0;exitPerimeter=0;entryX=-0.294;entryY=0.369;entryDx=0;entryDy=0;entryPerimeter=0;" edge="1" parent="1" target="CKbQxflFSovsi2AU5fdl-6">
          <mxGeometry x="0.0038" y="11" width="80" relative="1" as="geometry">
            <mxPoint x="110" y="89.41" as="sourcePoint" />
            <mxPoint x="1190" y="90.41" as="targetPoint" />
            <mxPoint as="offset" />
          </mxGeometry>
        </mxCell>
        <mxCell id="CKbQxflFSovsi2AU5fdl-7" value="" style="edgeStyle=orthogonalEdgeStyle;rounded=0;orthogonalLoop=1;jettySize=auto;html=1;dashed=1;endArrow=none;endFill=0;exitX=0.614;exitY=-0.031;exitDx=0;exitDy=0;exitPerimeter=0;entryX=0.5;entryY=1;entryDx=0;entryDy=0;" edge="1" parent="1" source="CKbQxflFSovsi2AU5fdl-12" target="CKbQxflFSovsi2AU5fdl-6">
          <mxGeometry relative="1" as="geometry">
            <mxPoint x="1415" y="-10" as="targetPoint" />
            <mxPoint x="1416" y="1018" as="sourcePoint" />
            <Array as="points" />
          </mxGeometry>
        </mxCell>
        <mxCell id="CKbQxflFSovsi2AU5fdl-6" value="" style="html=1;points=[];perimeter=orthogonalPerimeter;" vertex="1" parent="1">
          <mxGeometry x="1410" y="70" width="10" height="60" as="geometry" />
        </mxCell>
        <mxCell id="CKbQxflFSovsi2AU5fdl-8" value="&lt;font style=&quot;font-size: 11px&quot;&gt;Получение ответа на запрос&lt;/font&gt;" style="html=1;verticalAlign=bottom;endArrow=open;dashed=1;endSize=8;strokeColor=#000000;exitX=-0.294;exitY=0.792;exitDx=0;exitDy=0;exitPerimeter=0;" edge="1" parent="1" source="CKbQxflFSovsi2AU5fdl-6">
          <mxGeometry relative="1" as="geometry">
            <mxPoint x="1200" y="120" as="sourcePoint" />
            <mxPoint x="110" y="120" as="targetPoint" />
          </mxGeometry>
        </mxCell>
        <mxCell id="CKbQxflFSovsi2AU5fdl-9" value="&lt;font style=&quot;font-size: 11px&quot;&gt;Получение ответа на запрос&lt;br&gt;c dataUuid&lt;/font&gt;" style="html=1;verticalAlign=bottom;endArrow=open;dashed=1;endSize=8;strokeColor=#000000;exitX=0;exitY=0.75;exitDx=0;exitDy=0;exitPerimeter=0;entryX=1.141;entryY=0.763;entryDx=0;entryDy=0;entryPerimeter=0;" edge="1" parent="1" target="CKbQxflFSovsi2AU5fdl-2">
          <mxGeometry relative="1" as="geometry">
            <mxPoint x="100" y="140" as="sourcePoint" />
            <mxPoint x="-70" y="140" as="targetPoint" />
          </mxGeometry>
        </mxCell>
        <mxCell id="CKbQxflFSovsi2AU5fdl-10" value="" style="edgeStyle=orthogonalEdgeStyle;html=1;align=left;spacingLeft=2;endArrow=block;rounded=0;strokeColor=#000000;" edge="1" parent="1" target="-Iud8Ji5S1M-7aWHgCWq-9">
          <mxGeometry x="-0.0989" y="10" relative="1" as="geometry">
            <mxPoint x="570" y="810" as="sourcePoint" />
            <Array as="points" />
            <mxPoint x="581" y="840" as="targetPoint" />
            <mxPoint as="offset" />
          </mxGeometry>
        </mxCell>
        <mxCell id="-Iud8Ji5S1M-7aWHgCWq-9" value="" style="html=1;points=[];perimeter=orthogonalPerimeter;" parent="1" vertex="1">
          <mxGeometry x="570" y="790" width="10" height="40" as="geometry" />
        </mxCell>
        <mxCell id="CKbQxflFSovsi2AU5fdl-11" value="&lt;font style=&quot;font-size: 11px&quot;&gt;Запрос на получение обучающей выборки по dataUuid&lt;br&gt;&lt;/font&gt;" style="html=1;verticalAlign=bottom;endArrow=block;strokeColor=#000000;" edge="1" parent="1">
          <mxGeometry x="-0.0028" y="10" width="80" relative="1" as="geometry">
            <mxPoint x="570" y="930" as="sourcePoint" />
            <mxPoint x="1410" y="932" as="targetPoint" />
            <mxPoint as="offset" />
          </mxGeometry>
        </mxCell>
        <mxCell id="CKbQxflFSovsi2AU5fdl-13" value="" style="edgeStyle=orthogonalEdgeStyle;rounded=0;orthogonalLoop=1;jettySize=auto;html=1;dashed=1;endArrow=none;endFill=0;exitX=0.614;exitY=-0.031;exitDx=0;exitDy=0;exitPerimeter=0;entryX=0.5;entryY=1;entryDx=0;entryDy=0;" edge="1" parent="1" source="NynHPrWKD_xVcNc-aVbK-3" target="CKbQxflFSovsi2AU5fdl-12">
          <mxGeometry relative="1" as="geometry">
            <mxPoint x="1415" y="130" as="targetPoint" />
            <mxPoint x="1416" y="1018" as="sourcePoint" />
            <Array as="points">
              <mxPoint x="1416" y="150" />
            </Array>
          </mxGeometry>
        </mxCell>
        <mxCell id="CKbQxflFSovsi2AU5fdl-12" value="" style="html=1;points=[];perimeter=orthogonalPerimeter;" vertex="1" parent="1">
          <mxGeometry x="1410" y="920" width="10" height="70" as="geometry" />
        </mxCell>
        <mxCell id="CKbQxflFSovsi2AU5fdl-14" value="&lt;font style=&quot;font-size: 11px&quot;&gt;Получение ответа на запрос&lt;/font&gt;" style="html=1;verticalAlign=bottom;endArrow=open;dashed=1;endSize=8;strokeColor=#000000;exitX=-0.36;exitY=0.645;exitDx=0;exitDy=0;exitPerimeter=0;" edge="1" parent="1">
          <mxGeometry relative="1" as="geometry">
            <mxPoint x="1410" y="952" as="sourcePoint" />
            <mxPoint x="570" y="952" as="targetPoint" />
          </mxGeometry>
        </mxCell>
      </root>
    </mxGraphModel>
  </diagram>
</mxfile>
